<mxfile host="Electron" modified="2024-09-20T00:02:25.657Z" agent="Mozilla/5.0 (Windows NT 10.0; Win64; x64) AppleWebKit/537.36 (KHTML, like Gecko) draw.io/24.6.1 Chrome/124.0.6367.207 Electron/30.0.6 Safari/537.36" etag="NLXnBzrXmHw5B8wVzHAq" version="24.6.1" type="device">
  <diagram name="Page-1" id="wTH1N0zI9UmJKx_cmKL0">
    <mxGraphModel dx="1290" dy="621" grid="1" gridSize="10" guides="1" tooltips="1" connect="1" arrows="1" fold="1" page="1" pageScale="1" pageWidth="850" pageHeight="1100" math="0" shadow="0">
      <root>
        <mxCell id="0" />
        <mxCell id="1" parent="0" />
        <mxCell id="U8IeiV-7ICSCxq-YF36c-1" style="edgeStyle=orthogonalEdgeStyle;rounded=0;orthogonalLoop=1;jettySize=auto;html=1;exitX=0.75;exitY=0;exitDx=0;exitDy=0;entryX=0.75;entryY=1;entryDx=0;entryDy=0;" edge="1" parent="1" source="U8IeiV-7ICSCxq-YF36c-5" target="U8IeiV-7ICSCxq-YF36c-8">
          <mxGeometry relative="1" as="geometry" />
        </mxCell>
        <mxCell id="U8IeiV-7ICSCxq-YF36c-2" style="edgeStyle=orthogonalEdgeStyle;rounded=0;orthogonalLoop=1;jettySize=auto;html=1;exitX=1;exitY=0.5;exitDx=0;exitDy=0;entryX=0;entryY=0.5;entryDx=0;entryDy=0;" edge="1" parent="1" source="U8IeiV-7ICSCxq-YF36c-5" target="U8IeiV-7ICSCxq-YF36c-6">
          <mxGeometry relative="1" as="geometry" />
        </mxCell>
        <mxCell id="U8IeiV-7ICSCxq-YF36c-5" value="ESP32" style="rounded=0;whiteSpace=wrap;html=1;fillColor=#99FF99;" vertex="1" parent="1">
          <mxGeometry x="320" y="200" width="80" height="40" as="geometry" />
        </mxCell>
        <mxCell id="U8IeiV-7ICSCxq-YF36c-6" value="Speaker" style="rounded=0;whiteSpace=wrap;html=1;" vertex="1" parent="1">
          <mxGeometry x="440" y="200" width="80" height="40" as="geometry" />
        </mxCell>
        <mxCell id="U8IeiV-7ICSCxq-YF36c-7" style="edgeStyle=orthogonalEdgeStyle;rounded=0;orthogonalLoop=1;jettySize=auto;html=1;exitX=0.25;exitY=1;exitDx=0;exitDy=0;entryX=0.25;entryY=0;entryDx=0;entryDy=0;" edge="1" parent="1" source="U8IeiV-7ICSCxq-YF36c-8" target="U8IeiV-7ICSCxq-YF36c-5">
          <mxGeometry relative="1" as="geometry" />
        </mxCell>
        <mxCell id="U8IeiV-7ICSCxq-YF36c-8" value="MicroSD card &amp;amp; Module" style="rounded=0;whiteSpace=wrap;html=1;" vertex="1" parent="1">
          <mxGeometry x="320" y="120" width="80" height="40" as="geometry" />
        </mxCell>
        <mxCell id="U8IeiV-7ICSCxq-YF36c-11" style="edgeStyle=orthogonalEdgeStyle;rounded=0;orthogonalLoop=1;jettySize=auto;html=1;entryX=0;entryY=0.5;entryDx=0;entryDy=0;" edge="1" parent="1" source="U8IeiV-7ICSCxq-YF36c-12" target="U8IeiV-7ICSCxq-YF36c-5">
          <mxGeometry relative="1" as="geometry" />
        </mxCell>
        <mxCell id="U8IeiV-7ICSCxq-YF36c-12" value="Lithium Battery" style="rounded=0;whiteSpace=wrap;html=1;" vertex="1" parent="1">
          <mxGeometry x="200" y="200" width="80" height="40" as="geometry" />
        </mxCell>
        <mxCell id="U8IeiV-7ICSCxq-YF36c-15" value="Trolley System Block Diagram" style="swimlane;whiteSpace=wrap;html=1;" vertex="1" parent="1">
          <mxGeometry x="180" y="80" width="360" height="260" as="geometry" />
        </mxCell>
        <mxCell id="U8IeiV-7ICSCxq-YF36c-16" value="Ultrasonic Sensor" style="rounded=0;whiteSpace=wrap;html=1;" vertex="1" parent="U8IeiV-7ICSCxq-YF36c-15">
          <mxGeometry x="190" y="200" width="80" height="40" as="geometry" />
        </mxCell>
        <mxCell id="U8IeiV-7ICSCxq-YF36c-10" value="Accelerometer" style="rounded=0;whiteSpace=wrap;html=1;" vertex="1" parent="U8IeiV-7ICSCxq-YF36c-15">
          <mxGeometry x="90" y="200" width="80" height="40" as="geometry" />
        </mxCell>
        <mxCell id="U8IeiV-7ICSCxq-YF36c-17" style="edgeStyle=orthogonalEdgeStyle;rounded=0;orthogonalLoop=1;jettySize=auto;html=1;exitX=0.5;exitY=0;exitDx=0;exitDy=0;entryX=0.25;entryY=1;entryDx=0;entryDy=0;" edge="1" parent="1" source="U8IeiV-7ICSCxq-YF36c-10" target="U8IeiV-7ICSCxq-YF36c-5">
          <mxGeometry relative="1" as="geometry" />
        </mxCell>
        <mxCell id="U8IeiV-7ICSCxq-YF36c-18" style="edgeStyle=orthogonalEdgeStyle;rounded=0;orthogonalLoop=1;jettySize=auto;html=1;exitX=0.5;exitY=0;exitDx=0;exitDy=0;entryX=0.75;entryY=1;entryDx=0;entryDy=0;" edge="1" parent="1" source="U8IeiV-7ICSCxq-YF36c-16" target="U8IeiV-7ICSCxq-YF36c-5">
          <mxGeometry relative="1" as="geometry" />
        </mxCell>
      </root>
    </mxGraphModel>
  </diagram>
</mxfile>
